nColumns=19
nRows=107
DataType=double
version=3
OpenSimVersion=4.1
endheader
time	ground_force_calcn_r_vx	ground_force_calcn_r_vy	ground_force_calcn_r_vz	ground_force_calcn_r_px	ground_force_calcn_r_py	ground_force_calcn_r_pz	ground_force_calcn_r_mx	ground_force_calcn_r_my	ground_force_calcn_r_mz	ground_force_calcn_l_vx	ground_force_calcn_l_vy	ground_force_calcn_l_vz	ground_force_calcn_l_px	ground_force_calcn_l_py	ground_force_calcn_l_pz	ground_force_calcn_l_mx	ground_force_calcn_l_my	ground_force_calcn_l_mz
1.35	0	0	0	0	0	0	0	0	0	0	0	0	0	0	0	0	0	0
1.35833	0	0	0	0	0	0	0	0	0	0	0	0	0	0	0	0	0	0
1.36667	0	0	0	0	0	0	0	0	0	-12.7471	101.951	-1.48262	0.999589	0	-0.374197	0.0595949	-0.476637	0.0069315
1.375	0	0	0	0	0	0	0	0	0	-12.2523	239.324	1.16034	1.00491	0	-0.378609	0.0320674	-0.626372	-0.0030369
1.38333	0	0	0	0	0	0	0	0	0	-9.11072	461.927	7.67717	1.00319	0	-0.375537	0.0074574	-0.378101	-0.006284
1.39167	0	0	0	0	0	0	0	0	0	-13.4615	718.208	15.782	0.999782	0	-0.370994	-0.00793865	0.423549	0.00930712
1.4	0	0	0	0	0	0	0	0	0	-32.731	913.489	19.0217	0.997206	0	-0.367505	-0.0638873	1.78303	0.0371283
1.40833	0	0	0	0	0	0	0	0	0	-60.1693	1001.54	12.0568	0.995588	0	-0.366969	-0.208647	3.47299	0.0418088
1.41667	0	0	0	0	0	0	0	0	0	-85.1716	1021.81	-1.01316	0.992309	0	-0.370182	-0.421917	5.06175	-0.00501894
1.425	0	0	0	0	0	0	0	0	0	-107.289	1040.63	-6.92627	0.986676	0	-0.374142	-0.627002	6.08149	-0.0404775
1.43333	0	0	0	0	0	0	0	0	0	-128.241	1089.76	3.43967	0.981058	0	-0.374686	-0.735196	6.24748	0.0197194
1.44167	0	0	0	0	0	0	0	0	0	-142.976	1159.92	23.79	0.974833	0	-0.372988	-0.68689	5.57251	0.114293
1.45	0	0	0	0	0	0	0	0	0	-144.063	1226.83	39.5188	0.965766	0	-0.373223	-0.505953	4.30866	0.138791
1.45833	0	0	0	0	0	0	0	0	0	-131.502	1276.64	45.0792	0.954589	0	-0.376217	-0.285924	2.7758	0.0980156
1.46667	0	0	0	0	0	0	0	0	0	-116.537	1312.46	48.5242	0.943721	0	-0.379291	-0.110457	1.24398	0.0459924
1.475	0	0	0	0	0	0	0	0	0	-106.614	1342.4	58.1706	0.933737	0	-0.380121	0.0064462	-0.0811656	-0.00351717
1.48333	0	0	0	0	0	0	0	0	0	-97.8571	1366.53	70.8457	0.923415	0	-0.379588	0.0758142	-1.05871	-0.0548873
1.49167	0	0	0	0	0	0	0	0	0	-85.8574	1377.58	77.2984	0.912041	0	-0.380193	0.101691	-1.63163	-0.0915535
1.5	0	0	0	0	0	0	0	0	0	-72.5193	1372.81	75.4803	0.900144	0	-0.382479	0.0974273	-1.84433	-0.101405
1.50833	0	0	0	0	0	0	0	0	0	-61.9177	1359.24	72.6568	0.888772	0	-0.384511	0.0827068	-1.81561	-0.0970516
1.51667	0	0	0	0	0	0	0	0	0	-53.4961	1344.72	74.6338	0.878008	0	-0.384596	0.0662617	-1.66561	-0.0924435
1.525	0	0	0	0	0	0	0	0	0	-43.0412	1328.06	78.1301	0.86698	0	-0.383589	0.0471428	-1.45462	-0.0855755
1.53333	0	0	0	0	0	0	0	0	0	-29.193	1301.8	76.2935	0.855276	0	-0.383511	0.0265992	-1.18614	-0.069515
1.54167	0	0	0	0	0	0	0	0	0	-14.3057	1263.3	68.3388	0.843335	0	-0.384655	0.0096448	-0.851708	-0.0460736
1.55	0	0	0	0	0	0	0	0	0	-1.16272	1218.5	59.7403	0.83188	0	-0.385364	0.000436217	-0.457143	-0.0224127
1.55833	0	0	0	0	0	0	0	0	0	10.8431	1172.99	54.0698	0.820822	0	-0.384426	-0.000108609	-0.011749	-0.000541583
1.56667	0	0	0	0	0	0	0	0	0	24.1373	1124.57	48.7214	0.809444	0	-0.382643	0.0103833	0.483763	0.0209588
1.575	0	0	0	0	0	0	0	0	0	38.2955	1068.48	39.6409	0.797467	0	-0.381549	0.0366066	1.02136	0.0378927
1.58333	0	0	0	0	0	0	0	0	0	50.9013	1005.69	27.3087	0.785122	0	-0.381208	0.0790215	1.56128	0.0423953
1.59167	0	0	0	0	0	0	0	0	0	61.2696	941.195	15.8676	0.772612	0	-0.380324	0.132456	2.03473	0.0343036
1.6	0	0	0	0	0	0	0	0	0	71.3726	877.881	7.7821	0.759797	0	-0.378214	0.193084	2.37493	0.0210529
1.60833	0	0	0	0	0	0	0	0	0	81.5761	814.259	1.80963	0.74675	0	-0.375744	0.25502	2.5455	0.00565719
1.61667	0	0	0	0	0	0	0	0	0	89.3648	747.184	-3.95647	0.733699	0	-0.374089	0.304412	2.54521	-0.0134773
1.625	0	0	0	0	0	0	0	0	0	93.4369	677.316	-9.23569	0.720542	0	-0.373158	0.330334	2.39457	-0.0326517
1.63333	0	0	0	0	0	0	0	0	0	95.2906	609.135	-12.4124	0.707066	0	-0.371906	0.332333	2.1244	-0.0432892
1.64167	0	0	0	0	0	0	0	0	0	96.3997	544.79	-12.9336	0.693187	0	-0.369915	0.313734	1.77302	-0.0420927
1.65	0	0	0	0	0	0	0	0	0	96.0048	482.395	-11.9887	0.679276	0	-0.367993	0.274891	1.38124	-0.0343273
1.65833	0	0	0	0	0	0	0	0	0	92.8117	420.345	-11.13	0.665907	0	-0.367204	0.216136	0.978881	-0.0259192
1.66667	0	0	0	0	0	0	0	0	0	87.419	360.269	-10.7553	0.653142	0	-0.367647	0.139384	0.574424	-0.0171486
1.675	0	0	0	0	0	0	0	0	0	81.1409	305.318	-10.0702	0.640738	0	-0.368295	0.0432427	0.162714	-0.00536674
1.68333	0	0	0	0	0	0	0	0	0	74.3111	257.262	-8.3688	0.629737	0	-0.368059	-0.0737381	-0.255278	0.00830427
1.69167	0	0	0	0	0	0	0	0	0	66.7053	215.137	-6.04646	0.621496	0	-0.367054	-0.203149	-0.655193	0.0184143
1.7	0	0	0	0	0	0	0	0	0	58.7333	176.829	-4.10198	0.614777	0	-0.366617	-0.325744	-0.980722	0.0227502
1.70833	0	0	0	0	0	0	0	0	0	51.0762	142.041	-2.86055	0.607598	0	-0.367442	-0.413975	-1.15125	0.0231849
1.71667	0	0	0	0	0	0	0	0	0	43.7021	112.324	-1.72165	0.600823	0	-0.367568	-0.424774	-1.09176	0.0167341
1.725	0	0	0	0	0	0	0	0	0	36.3084	88.3438	-0.189623	0.594796	0	-0.363181	-0.311579	-0.758119	0.00162724
1.73333	0	0	0	0	0	0	0	0	0	0	0	0	0	0	0	0	0	0
1.74167	0	0	0	0	0	0	0	0	0	0	0	0	0	0	0	0	0	0
1.75	0	0	0	0	0	0	0	0	0	0	0	0	0	0	0	0	0	0
1.75833	0	0	0	0	0	0	0	0	0	0	0	0	0	0	0	0	0	0
1.76667	-7.12323	78.4712	-3.14748	0.950872	0	-0.297619	-0.29585	3.25915	-0.130725	0	0	0	0	0	0	0	0	0
1.775	-7.51228	172.075	-4.67129	1.01075	0	-0.298421	-0.131885	3.02093	-0.0820086	0	0	0	0	0	0	0	0	0
1.78333	-2.96401	348.928	-2.19065	1.02431	0	-0.302047	-0.0167657	1.97369	-0.0123913	0	0	0	0	0	0	0	0	0
1.79167	-3.06557	587.221	7.07621	1.02396	0	-0.304121	-0.00145372	0.278466	0.0033556	0	0	0	0	0	0	0	0	0
1.8	-19.994	809.015	21.5574	1.02139	0	-0.304754	0.0415851	-1.68265	-0.0448367	0	0	0	0	0	0	0	0	0
1.80833	-52.3769	942.5	33.4792	1.01984	0	-0.305124	0.190263	-3.4237	-0.121616	0	0	0	0	0	0	0	0	0
1.81667	-84.3598	985.06	34.0649	1.01796	0	-0.305933	0.389075	-4.54319	-0.157111	0	0	0	0	0	0	0	0	0
1.825	-106.817	987.087	22.0142	1.01297	0	-0.306889	0.52859	-4.88465	-0.108938	0	0	0	0	0	0	0	0	0
1.83333	-122.433	999.152	5.43631	1.00489	0	-0.306872	0.557056	-4.54603	-0.0247346	0	0	0	0	0	0	0	0	0
1.84167	-135.041	1042.45	-6.08088	0.996171	0	-0.305152	0.488691	-3.77245	0.0220056	0	0	0	0	0	0	0	0	0
1.85	-144.39	1109.71	-10.6921	0.987535	0	-0.302555	0.365232	-2.80699	0.0270455	0	0	0	0	0	0	0	0	0
1.85833	-145.053	1181.58	-14.3206	0.977683	0	-0.300478	0.220949	-1.79981	0.0218136	0	0	0	0	0	0	0	0	0
1.86667	-134.474	1242.64	-22.273	0.966092	0	-0.299357	0.0875992	-0.809484	0.0145091	0	0	0	0	0	0	0	0	0
1.875	-118.879	1288.5	-33.2437	0.953792	0	-0.298455	-0.0136439	0.147883	-0.00381542	0	0	0	0	0	0	0	0	0
1.88333	-105.049	1322.63	-42.382	0.941676	0	-0.296892	-0.0848132	1.06785	-0.034218	0	0	0	0	0	0	0	0	0
1.89167	-94.0433	1348.03	-47.974	0.92975	0	-0.294768	-0.136614	1.95824	-0.0696906	0	0	0	0	0	0	0	0	0
1.9	-84.181	1363.53	-52.5858	0.91786	0	-0.29285	-0.17491	2.83312	-0.109262	0	0	0	0	0	0	0	0	0
1.90833	-75.2904	1368.2	-58.3366	0.906136	0	-0.291591	-0.203084	3.69051	-0.157354	0	0	0	0	0	0	0	0	0
1.91667	-67.3972	1365.77	-63.8025	0.894584	0	-0.290745	-0.221982	4.49835	-0.210143	0	0	0	0	0	0	0	0	0
1.925	-58.0037	1361.13	-66.3478	0.882722	0	-0.289838	-0.221794	5.20467	-0.2537	0	0	0	0	0	0	0	0	0
1.93333	-45.6611	1354.41	-65.6052	0.870418	0	-0.2889	-0.194109	5.75769	-0.278893	0	0	0	0	0	0	0	0	0
1.94167	-31.7575	1341.59	-63.208	0.858269	0	-0.288331	-0.14485	6.11919	-0.288301	0	0	0	0	0	0	0	0	0
1.95	-18.1986	1318.81	-60.1069	0.846619	0	-0.288217	-0.0864822	6.26715	-0.285636	0	0	0	0	0	0	0	0	0
1.95833	-5.12532	1285.32	-55.7371	0.83526	0	-0.288256	-0.0246941	6.19274	-0.268545	0	0	0	0	0	0	0	0	0
1.96667	7.81438	1242.24	-49.4746	0.823904	0	-0.288301	0.0371086	5.89908	-0.234943	0	0	0	0	0	0	0	0	0
1.975	19.6139	1189.67	-41.562	0.812573	0	-0.288577	0.0890848	5.40339	-0.188772	0	0	0	0	0	0	0	0	0
1.98333	29.846	1128.39	-32.5231	0.801468	0	-0.28929	0.125333	4.73849	-0.136576	0	0	0	0	0	0	0	0	0
1.99167	39.6011	1061.54	-22.5945	0.790467	0	-0.290391	0.147405	3.95133	-0.0841023	0	0	0	0	0	0	0	0	0
2	50.1106	992.084	-11.9977	0.779036	0	-0.291739	0.156639	3.10112	-0.037503	0	0	0	0	0	0	0	0	0
2.00833	61.3543	920.957	-1.35172	0.766887	0	-0.293233	0.150304	2.25613	-0.00331141	0	0	0	0	0	0	0	0	0
2.01667	71.9443	848.265	8.37395	0.754387	0	-0.294852	0.126056	1.48628	0.0146723	0	0	0	0	0	0	0	0	0
2.025	80.6922	774.669	16.2816	0.741646	0	-0.296593	0.0886214	0.850792	0.0178815	0	0	0	0	0	0	0	0	0
2.03333	87.112	701.459	21.9419	0.728273	0	-0.298319	0.0480133	0.386621	0.0120937	0	0	0	0	0	0	0	0	0
2.04167	90.893	629.811	25.4112	0.714285	0	-0.299696	0.0148475	0.102881	0.00415096	0	0	0	0	0	0	0	0	0
2.05	91.7301	559.859	26.8969	0.700383	0	-0.300496	-0.00283446	-0.0172997	-0.000831113	0	0	0	0	0	0	0	0	0
2.05833	89.6695	490.967	26.4976	0.687441	0	-0.300861	-0.00176792	-0.00967991	-0.000522426	0	0	0	0	0	0	0	0	0
2.06667	85.5755	422.688	24.3427	0.675179	0	-0.300992	0.0161931	0.0799833	0.00460626	0	0	0	0	0	0	0	0	0
2.075	80.2237	355.663	20.9002	0.662553	0	-0.30073	0.0461714	0.204696	0.0120287	0	0	0	0	0	0	0	0	0
2.08333	73.8389	292.14	16.9395	0.649874	0	-0.299731	0.0821833	0.325154	0.0188538	0	0	0	0	0	0	0	0	0
2.09167	66.1535	234.282	13.092	0.638578	0	-0.29777	0.117885	0.417489	0.0233299	0	0	0	0	0	0	0	0	0
2.1	56.776	182.792	9.52605	0.630627	0	-0.294771	0.147748	0.475681	0.0247897	0	0	0	0	0	0	0	0	0
2.10833	46.1605	137.914	6.14543	0.627411	0	-0.290737	0.169258	0.505694	0.0225336	0	0	0	0	0	0	0	0	0
2.11667	35.509	100.036	3.05191	0.627139	0	-0.285555	0.183007	0.51557	0.015729	0	0	0	0	0	0	0	0	0
2.125	0	0	0	0	0	0	0	0	0	0	0	0	0	0	0	0	0	0
2.13333	0	0	0	0	0	0	0	0	0	0	0	0	0	0	0	0	0	0
2.14167	0	0	0	0	0	0	0	0	0	0	0	0	0	0	0	0	0	0
2.15	0	0	0	0	0	0	0	0	0	0	0	0	0	0	0	0	0	0
2.15833	0	0	0	0	0	0	0	0	0	0	0	0	0	0	0	0	0	0
2.16667	0	0	0	0	0	0	0	0	0	0	0	0	0	0	0	0	0	0
2.175	0	0	0	0	0	0	0	0	0	0	0	0	0	0	0	0	0	0
2.18333	0	0	0	0	0	0	0	0	0	-7.76178	171.205	-2.34225	0.972757	0	-0.388127	-0.0263954	0.582214	-0.00796527
2.19167	0	0	0	0	0	0	0	0	0	1.04861	346.803	1.88304	0.972476	0	-0.385787	0.00339586	1.12311	0.00609814
2.2	0	0	0	0	0	0	0	0	0	9.68699	560.665	8.48457	0.96847	0	-0.381439	0.0354891	2.05404	0.031084
2.20833	0	0	0	0	0	0	0	0	0	7.77291	726.531	12.5236	0.964406	0	-0.377952	0.0358618	3.35199	0.0577802
2.21667	0	0	0	0	0	0	0	0	0	-7.59462	797.63	8.41081	0.961834	0	-0.377863	-0.0459095	4.82167	0.0508433
2.225	0	0	0	0	0	0	0	0	0	-33.4678	811.107	-1.69226	0.959879	0	-0.382601	-0.251791	6.10226	-0.0127315
2.23333	0	0	0	0	0	0	0	0	0	-66.1349	829.534	-6.03232	0.957782	0	-0.388701	-0.542222	6.80112	-0.0494573
